<svg width="24" height="22" viewBox="0 0 24 22" xmlns="http://www.w3.org/2000/svg"><title>ic_domain_24px</title><g fill="none" fill-rule="evenodd"><path d="M-2-3h28v28H-2z"/><path d="M12 5.167V.5H.333v21h23.334V5.167H12zm-7 14H2.667v-2.334H5v2.334zM5 14.5H2.667v-2.333H5V14.5zm0-4.667H2.667V7.5H5v2.333zm0-4.666H2.667V2.833H5v2.334zm4.667 14H7.333v-2.334h2.334v2.334zm0-4.667H7.333v-2.333h2.334V14.5zm0-4.667H7.333V7.5h2.334v2.333zm0-4.666H7.333V2.833h2.334v2.334zm11.666 14H12v-2.334h2.333V14.5H12v-2.333h2.333V9.833H12V7.5h9.333v11.667zM19 9.833h-2.333v2.334H19V9.833zm0 4.667h-2.333v2.333H19V14.5z" fill="#1A73E8"/></g></svg>