<svg width="26" height="20" viewBox="0 0 26 20" xmlns="http://www.w3.org/2000/svg"><title>ic_local_shipping_24px</title><g fill="none" fill-rule="evenodd"><path d="M-1-4h28v28H-1z"/><path d="M22.333 5.333h-3.5V.667H2.5A2.34 2.34 0 0 0 .167 3v12.833H2.5c0 1.937 1.563 3.5 3.5 3.5s3.5-1.563 3.5-3.5h7c0 1.937 1.563 3.5 3.5 3.5s3.5-1.563 3.5-3.5h2.333V10l-3.5-4.667zM6 17.583c-.968 0-1.75-.781-1.75-1.75 0-.968.782-1.75 1.75-1.75s1.75.782 1.75 1.75c0 .969-.782 1.75-1.75 1.75zm15.75-10.5L24.037 10h-5.204V7.083h2.917zM20 17.583c-.968 0-1.75-.781-1.75-1.75 0-.968.782-1.75 1.75-1.75s1.75.782 1.75 1.75c0 .969-.782 1.75-1.75 1.75z" fill="#1A73E8"/></g></svg>